<svg xmlns="http://www.w3.org/2000/svg" version="1.1" xmlns:xlink="http://www.w3.org/1999/xlink" xmlns:svgjs="http://svgjs.dev/svgjs" width="1500" height="503" viewBox="0 0 1500 503"><g transform="matrix(1,0,0,1,-0.9090909090909918,-1.6732741962887019)"><svg viewBox="0 0 396 133" data-background-color="#ffffff" preserveAspectRatio="xMidYMid meet" height="503" width="1500" xmlns="http://www.w3.org/2000/svg" xmlns:xlink="http://www.w3.org/1999/xlink"><g id="tight-bounds" transform="matrix(1,0,0,1,0.2400000000000091,0.44243631830298114)"><svg viewBox="0 0 395.52 132.11512736339404" height="132.11512736339404" width="395.52"><g><svg viewBox="0 0 642.1255498185562 214.48851839999998" height="132.11512736339404" width="395.52"><g transform="matrix(1,0,0,1,0,39.22160670979294)"><svg viewBox="0 0 395.52 136.0453049804141" height="136.0453049804141" width="395.52"><g id="textblocktransform"><svg viewBox="0 0 395.52 136.0453049804141" height="136.0453049804141" width="395.52" id="textblock"><g><svg viewBox="0 0 395.52 136.0453049804141" height="136.0453049804141" width="395.52"><g transform="matrix(1,0,0,1,0,0)"><svg width="395.52" viewBox="1.49 -35.01 130.87 45.019999999999996" height="136.0453049804141" data-palette-color="#ff6f00"><path d="M19.7-8.11L19.7-8.11Q19.7-6.32 19.03-4.76 18.36-3.2 17.19-2.03 16.02-0.85 14.45-0.18 12.89 0.49 11.11 0.49L11.11 0.49 10.11 0.49Q8.33 0.49 6.75-0.18 5.18-0.85 4-2.03 2.83-3.2 2.16-4.76 1.49-6.32 1.49-8.11L1.49-8.11 1.49-9.5 4.64-10.01 4.64-8.11Q4.64-6.93 5.08-5.92 5.52-4.91 6.29-4.14 7.06-3.37 8.07-2.93 9.08-2.49 10.25-2.49L10.25-2.49 10.96-2.49Q12.11-2.49 13.13-2.93 14.16-3.37 14.92-4.14 15.67-4.91 16.11-5.92 16.55-6.93 16.55-8.11L16.55-8.11 16.55-35.01 19.7-35.01 19.7-8.11ZM42.4-6.86L42.4-6.86Q42.4-5.35 41.83-4 41.26-2.66 40.26-1.66 39.26-0.66 37.91-0.09 36.57 0.49 35.06 0.49L35.06 0.49 33.05 0.49Q31.54 0.49 30.2-0.09 28.85-0.66 27.85-1.66 26.85-2.66 26.28-4 25.71-5.35 25.71-6.86L25.71-6.86 25.71-18.14Q25.71-19.65 26.28-21 26.85-22.34 27.85-23.34 28.85-24.34 30.2-24.91 31.54-25.49 33.05-25.49L33.05-25.49 35.06-25.49Q36.57-25.49 37.91-24.91 39.26-24.34 40.26-23.34 41.26-22.34 41.83-21 42.4-19.65 42.4-18.14L42.4-18.14 42.4-6.86ZM39.4-6.69L39.4-18.31Q39.4-19.21 39.06-20.01 38.72-20.8 38.13-21.39 37.55-21.97 36.75-22.31 35.96-22.66 35.06-22.66L35.06-22.66 33.05-22.66Q32.15-22.66 31.36-22.31 30.56-21.97 29.98-21.39 29.39-20.8 29.05-20.01 28.71-19.21 28.71-18.31L28.71-18.31 28.71-6.69Q28.71-5.79 29.05-4.99 29.39-4.2 29.98-3.61 30.56-3.03 31.36-2.69 32.15-2.34 33.05-2.34L33.05-2.34 35.06-2.34Q35.96-2.34 36.75-2.69 37.55-3.03 38.13-3.61 38.72-4.2 39.06-4.99 39.4-5.79 39.4-6.69L39.4-6.69ZM65.11-6.86L65.11-6.86Q65.11-5.35 64.53-4 63.96-2.66 62.96-1.66 61.96-0.66 60.62-0.09 59.27 0.49 57.76 0.49L57.76 0.49 55.76 0.49Q54.24 0.49 52.9-0.09 51.56-0.66 50.56-1.66 49.56-2.66 48.98-4 48.41-5.35 48.41-6.86L48.41-6.86 48.41-35.01 51.41-35.01 51.41-22.9Q52.44-24.12 53.88-24.8 55.32-25.49 57-25.49L57-25.49 57.76-25.49Q59.27-25.49 60.62-24.91 61.96-24.34 62.96-23.34 63.96-22.34 64.53-21 65.11-19.65 65.11-18.14L65.11-18.14 65.11-6.86ZM62.1-6.69L62.1-18.31Q62.1-19.21 61.76-20.01 61.42-20.8 60.83-21.39 60.25-21.97 59.46-22.31 58.66-22.66 57.76-22.66L57.76-22.66 55.76-22.66Q54.85-22.66 54.06-22.31 53.27-21.97 52.68-21.39 52.09-20.8 51.75-20.01 51.41-19.21 51.41-18.31L51.41-18.31 51.41-6.69Q51.41-5.79 51.75-4.99 52.09-4.2 52.68-3.61 53.27-3.03 54.06-2.69 54.85-2.34 55.76-2.34L55.76-2.34 57.76-2.34Q58.66-2.34 59.46-2.69 60.25-3.03 60.83-3.61 61.42-4.2 61.76-4.99 62.1-5.79 62.1-6.69L62.1-6.69ZM75.36-31.01L71.87-31.01 71.87-35.01 75.36-35.01 75.36-31.01ZM75.11 0L72.11 0 72.11-25 75.11-25 75.11 0ZM93.47-32.15L90.71-32.15Q89.96-32.15 89.31-31.87 88.66-31.59 88.17-31.1 87.69-30.62 87.4-29.96 87.12-29.3 87.12-28.54L87.12-28.54 87.12-25 92.96-25 92.96-22.14 87.12-22.14 87.12 0 84.12 0 84.12-22.14 79.6-22.14 79.6-25 84.12-25 84.12-28.39Q84.12-29.76 84.63-30.97 85.15-32.18 86.05-33.08 86.95-33.98 88.15-34.5 89.35-35.01 90.71-35.01L90.71-35.01 93.47-35.01 93.47-32.15ZM113.17-25L100.52 10.01 97.62 10.01 102.06-2.15 93.96-25 96.96-25 103.48-6.05 103.58-4.76 103.67-6.05 110.17-25 113.17-25ZM132.36 0L129.11 0 123.76-9.59 118.42 0 115.17 0 122.18-12.5 115.17-25 118.42-25 123.76-15.41 129.11-25 132.36-25 125.38-12.5 132.36 0Z" opacity="1" transform="matrix(1,0,0,1,0,0)" fill="#ff6f00" class="wordmark-text-0" data-fill-palette-color="primary" id="text-0"></path></svg></g></svg></g></svg></g></svg></g><g transform="matrix(1,0,0,1,427.6370314185562,0)"><svg viewBox="0 0 214.48851839999998 214.48851839999998" height="214.48851839999998" width="214.48851839999998"><g><svg></svg></g><g id="icon-0"><svg viewBox="0 0 214.48851839999998 214.48851839999998" height="214.48851839999998" width="214.48851839999998"><g><rect width="195.02567136" height="195.02567136" x="9.731423519999993" y="9.731423519999993" fill="#002e5d" data-fill-palette-color="accent"></rect><rect width="195.02567136" height="195.02567136" x="-5.329070518200751e-15" y="-5.329070518200751e-15" fill="#002e5d" opacity="0.5" data-fill-palette-color="accent"></rect></g><g transform="matrix(1,0,0,1,27.80406719999999,34.91939722387842)"><svg viewBox="0 0 158.880384 144.64972395224314" height="144.64972395224314" width="158.880384"><g><svg xmlns="http://www.w3.org/2000/svg" xmlns:xlink="http://www.w3.org/1999/xlink" version="1.1" x="0" y="0" viewBox="9.269 12.559000000000001 82.25 74.883" enable-background="new 0 0 100 100" xml:space="preserve" height="144.64972395224314" width="158.880384" class="icon-dxe-0" data-fill-palette-color="quaternary" id="dxe-0"><polygon points="73.728,28.041 53.355,28.041 53.355,45.544 38.466,45.544 38.466,58.702 22.775,58.702 22.775,69.374 9.269,69.374   9.269,87.442 91.519,87.442 91.519,28.041 " fill="#ffffff" data-fill-palette-color="quaternary"></polygon><circle cx="39.75" cy="17.69" r="5.1" fill="#ffffff" data-fill-palette-color="quaternary"></circle><path d="M49.858 23.905A3.03 3.03 0 0 0 45.57 23.862L37.65 31.623 36.264 28.782C37.468 27.092 37.481 24.753 36.12 23.052A4.767 4.767 0 0 0 29.421 22.308C29.031 22.62 19.808 30.068 14.81 40.064A4.8 4.8 0 0 0 14.344 41.637C14.337 41.675 14.337 41.712 14.33 41.75 14.323 41.82 14.316 41.891 14.313 41.96 14.299 42.132 14.301 42.305 14.318 42.48 14.344 42.903 14.422 43.32 14.557 43.72L17.566 57.123 10.8 66.825A3.035 3.035 0 0 0 13.285 71.593C14.243 71.593 15.185 71.14 15.775 70.295L23.304 59.496A3.03 3.03 0 0 0 23.776 57.098L21.367 46.363A4.8 4.8 0 0 0 22.652 45.33L27.047 47.714 24.682 55.758A3.033 3.033 0 1 0 30.5 57.471L33.559 47.075A3.034 3.034 0 0 0 32.096 43.554L25.828 40.154C27.732 37.393 29.881 34.988 31.662 33.187L34.041 38.065A3.04 3.04 0 0 0 36.768 39.768C37.555 39.768 38.319 39.461 38.889 38.901L49.813 28.197A3.034 3.034 0 0 0 49.858 23.905" fill="#ffffff" data-fill-palette-color="quaternary"></path><path d="M80.614 16.03H75.784V15.487C75.784 14.423 74.919 13.557 73.854 13.557H70.42A1.933 1.933 0 0 0 68.489 15.487V16.03H64.26C63.508 16.03 62.899 16.64 62.899 17.392V26.017C62.899 26.769 63.508 27.379 64.26 27.379H80.614C81.366 27.379 81.975 26.769 81.975 26.017V17.392A1.36 1.36 0 0 0 80.614 16.03M69.626 15.487C69.626 15.049 69.982 14.694 70.42 14.694H73.855C74.293 14.694 74.648 15.05 74.648 15.487V16.03H69.627z" fill="#ffffff" data-fill-palette-color="quaternary"></path></svg></g></svg></g></svg></g></svg></g></svg></g><defs></defs></svg><rect width="395.52" height="132.11512736339404" fill="none" stroke="none" visibility="hidden"></rect></g></svg></g></svg>